# xmcd
#
# Track frame offsets:
#	150
#	19415
#	38150
#	58600
#	77612
#	94570
#	116575
#	133747
#	152437
#	171502
#
# Disc length: 2543 seconds
#
# Revision: 0
# Processed by: cddbd v1.5.2PL0 Copyright (c) Steve Scherf et al.
# Submitted via: EasyCDDAExtractor 15.2.5.1
#
DISCID=7a09ed0a
DTITLE=백영규 - 11집 설국(雪國)으로 가는 길 (1998) by oreum.com
DYEAR=1998
DGENRE=Pop
TTITLE0=잘못된 인연
TTITLE1=숨쉬는 아침
TTITLE2=지상만애
TTITLE3=훈련소 가는 길
TTITLE4=종복이의 하루
TTITLE5=기찻길 그리움
TTITLE6=아름다운 침묵
TTITLE7=가을의 마음
TTITLE8=이별하는 방법
TTITLE9=잘못된 인연
EXTD=
EXTT0=
EXTT1=
EXTT2=
EXTT3=
EXTT4=
EXTT5=
EXTT6=
EXTT7=
EXTT8=
EXTT9=
PLAYORDER=
